<svg version="1.0" xmlns="http://www.w3.org/2000/svg"  width="300.000000pt" height="327.000000pt" viewBox="0 0 300.000000 327.000000"  preserveAspectRatio="xMidYMid meet">  
<g transform="translate(0.000000,327.000000) scale(0.100000,-0.100000)" fill="#000000" stroke="none"> 
<path fill="blue" d="M0 1635 l0 -1635 926 0 c810 1 924 2 914 15 -7 8 -16 12 -21 9 -5 -3 -18 5 -28 18 -16 19 -27 23 -74 21 -41 -1 -57 2 -61 13 -3 9 -14 14 -25 12 -10 -2 -28 8 -41 22 -12 14 -18 19 -15 11 5 -9 -1 -8 -19 4 -14 10 -26 21 -26 26 0 5 -18 16 -40 25 -26 11 -40 22 -40 34 0 10 -6 21 -12 23 -10 4 -9 8 2 17 12 10 12 11 -5 5 -11 -4 -37 -9 -59 -12 l-39 -6 8 69 c4 38 12 72 19 76 7 5 6 8 -4 8 -15 0 -50 51 -50 73 0 6 -8 19 -17 30 -10 10 -18 31 -19 46 -2 60 -5 71 -19 71 -8 0 -15 7 -15 16 0 9 -9 29 -21 45 -11 16 -17 33 -14 39 3 5 1 10 -4 10 -6 0 -11 7 -11 16 0 8 -4 13 -9 10 -8 -5 -26 49 -22 67 1 5 -8 11 -19 14 -11 3 -17 9 -14 14 16 27 -81 -29 -119 -68 -15 -16 -40 -39 -57 -53 -16 -14 -30 -29 -30 -34 0 -5 -6 -17 -14 -25 -17 -20 -75 -120 -83 -143 -3 -10 -20 -20 -41 -24 -29 -6 -38 -3 -53 17 -46 61 -34 96 71 200 31 31 74 85 95 120 22 35 58 88 82 118 41 54 42 55 20 66 -12 6 -22 20 -22 30 0 11 -6 29 -12 40 -10 16 -14 17 -22 6 -8 -12 -18 31 -26 104 0 6 -8 26 -17 46 -8 20 -19 45 -22 56 -4 12 -13 24 -21 27 -10 3 -15 20 -15 46 0 22 -4 40 -10 40 -5 0 -10 7 -10 15 0 8 -4 15 -10 15 -5 0 -12 16 -16 36 -4 23 -11 33 -19 30 -10 -3 -12 7 -9 42 3 28 1 42 -4 34 -6 -9 -12 -2 -19 23 -6 19 -8 37 -3 40 14 8 20 66 9 86 -8 17 -13 18 -25 8 -12 -10 -20 -8 -41 14 -24 24 -25 26 -9 42 9 10 25 15 34 13 12 -4 18 1 18 13 0 11 -4 19 -9 19 -19 0 -57 52 -57 77 0 14 -6 39 -14 56 -31 73 -33 81 -23 127 5 25 14 51 19 58 7 8 7 17 -1 26 -7 8 -11 36 -9 63 2 37 0 48 -12 48 -11 0 -15 12 -16 44 0 37 1 41 9 23 16 -36 27 -25 27 27 0 28 4 53 10 56 6 3 10 20 10 36 0 18 -4 28 -10 24 -16 -10 -12 5 6 23 9 9 12 18 7 19 -10 4 -9 48 2 98 4 17 9 45 11 64 2 19 9 38 15 42 6 4 9 11 5 17 -3 6 -2 13 4 17 5 3 10 19 10 34 0 53 12 92 26 87 8 -3 14 -1 14 3 0 5 -5 11 -11 13 -7 2 -7 12 0 31 6 16 11 41 11 58 0 16 8 38 17 48 9 11 18 30 20 43 2 12 9 26 16 30 6 4 8 8 2 8 -7 0 -7 3 0 8 6 4 21 30 35 57 14 28 30 53 35 57 6 4 -189 8 -432 8 l-443 0 0 -1635z m637 948 c-4 -3 -10 -3 -14 0 -3 4 0 7 7 7 7 0 10 -3 7 -7z m-20 -400 c-4 -3 -7 0 -7 7 0 7 3 10 7 7 3 -4 3 -10 0 -14z m210 -810 c-4 -3 -10 -3 -14 0 -3 4 0 7 7 7 7 0 10 -3 7 -7z"/> 
<path fill="blue" d="M2096 3248 c49 -56 63 -139 33 -194 -12 -23 -11 -27 10 -43 l22 -17 -26 -12 c-22 -10 -26 -17 -21 -37 4 -15 1 -27 -8 -32 -7 -4 -21 -24 -31 -43 -9 -19 -29 -50 -42 -68 -14 -18 -23 -34 -22 -36 2 -1 19 -13 37 -25 17 -12 32 -28 32 -36 0 -7 11 -16 25 -19 15 -4 30 -18 35 -32 8 -21 6 -31 -12 -54 -13 -16 -29 -29 -35 -29 -26 -2 -12 -18 29 -37 24 -10 65 -36 93 -56 27 -21 53 -38 57 -38 4 0 5 -6 2 -14 -6 -17 101 -112 158 -141 32 -16 45 -30 60 -70 31 -77 42 -99 55 -110 7 -5 21 -26 31 -45 11 -20 34 -43 55 -53 24 -12 37 -26 37 -38 0 -11 7 -22 15 -25 8 -4 15 -12 15 -19 0 -29 35 -74 60 -77 33 -4 40 -42 11 -58 -26 -13 -27 -40 -3 -78 19 -33 74 -82 91 -82 5 0 26 -14 44 -30 19 -17 39 -30 45 -30 6 0 20 -12 31 -27 l20 -28 1 878 0 877 -462 0 -461 0 19 -22z"/> 
<path fill="black" d="M2000 2846 c-20 -7 -36 -21 -39 -32 -2 -10 -7 -24 -13 -31 -6 -8 -4 -23 8 -44 21 -41 12 -168 -17 -233 -10 -25 -22 -66 -26 -93 -8 -64 -59 -164 -78 -156 -8 3 -15 10 -15 15 0 18 -74 89 -114 110 -43 22 -89 18 -80 -7 4 -8 1 -15 -5 -15 -6 0 -10 3 -10 8 4 25 -4 23 -21 -6 -11 -18 -24 -31 -29 -28 -5 3 -12 -6 -16 -21 -10 -42 -75 -113 -133 -146 -52 -29 -53 -30 -35 -49 28 -28 85 -31 143 -8 59 23 80 25 80 7 0 -21 -41 -52 -100 -77 -59 -24 -99 -72 -119 -145 -5 -19 -19 -47 -30 -61 -12 -15 -21 -32 -21 -38 0 -6 -11 -27 -23 -46 -38 -56 -83 -207 -94 -317 -4 -43 -1 -57 17 -82 12 -17 28 -31 36 -31 19 0 18 -6 -10 -43 -14 -18 -27 -44 -31 -59 -6 -24 -66 -92 -146 -164 -19 -17 -43 -44 -54 -62 -103 -160 -186 -274 -217 -297 -40 -31 -88 -95 -88 -119 0 -8 5 -27 12 -41 9 -21 18 -25 41 -23 24 3 34 13 62 66 18 35 42 74 54 86 12 12 21 27 21 34 0 12 128 130 179 164 19 13 60 54 90 91 64 78 110 113 124 94 6 -8 7 -6 3 5 -4 13 17 36 77 86 45 38 101 79 125 92 23 13 49 34 57 47 9 13 20 23 25 23 14 0 13 -189 -1 -229 -9 -25 -9 -38 1 -56 20 -36 7 -127 -23 -167 -31 -42 -34 -53 -42 -163 -7 -100 -15 -120 -56 -153 -21 -17 -29 -32 -29 -57 0 -23 -10 -44 -34 -71 -25 -28 -35 -50 -40 -88 -3 -27 -4 -51 -3 -52 1 -1 17 1 35 3 24 4 36 13 48 39 9 19 31 50 49 70 18 20 43 55 54 78 98 198 143 305 165 391 14 55 32 116 40 135 52 135 66 197 67 290 1 103 18 301 33 376 8 38 22 102 30 142 12 52 15 103 12 174 -4 98 -4 102 26 154 16 30 40 93 53 141 12 49 30 115 40 148 12 41 19 101 20 193 l3 132 -29 17 c-33 20 -35 26 -14 43 8 7 12 17 8 23 -3 5 -1 7 4 4 6 -4 18 4 27 18 18 28 16 29 -34 11z m-227 -703 c-25 -33 -28 -35 -31 -15 -4 26 16 51 41 52 15 0 14 -5 -10 -37z m-336 11 c-3 -3 -12 -4 -19 -1 -8 3 -5 6 6 6 11 1 17 -2 13 -5z m-32 -43 c-6 -5 -25 10 -25 20 0 5 6 4 14 -3 8 -7 12 -15 11 -17z m108 -364 c12 -27 20 -64 19 -83 -4 -54 -58 -140 -144 -229 -43 -44 -78 -83 -78 -88 0 -4 -11 0 -25 9 -14 9 -25 24 -25 33 1 14 3 13 15 -3 23 -31 29 -11 12 41 l-16 48 34 50 c18 28 51 92 73 143 22 52 53 112 68 134 28 40 28 40 37 17 5 -13 19 -46 30 -72z"/> 
<path d="M1350 2160 c0 -7 3 -10 7 -7 3 4 3 10 0 14 -4 3 -7 0 -7 -7z"/> 
<path d="M770 1710 c0 -7 3 -10 7 -7 3 4 3 10 0 14 -4 3 -7 0 -7 -7z"/> 
<path d="M770 1680 c0 -7 3 -10 7 -7 3 4 3 10 0 14 -4 3 -7 0 -7 -7z"/> 
<path d="M771 1644 c0 -11 3 -14 6 -6 3 7 2 16 -1 19 -3 4 -6 -2 -5 -13z"/> 
<path d="M2990 1450 c0 -7 3 -10 7 -7 3 4 3 10 0 14 -4 3 -7 0 -7 -7z"/> 
<path d="M2124 1405 c-9 -22 11 -70 30 -73 29 -6 35 11 19 51 -15 38 -39 49 -49 22z"/> 
<path fill="blue" d="M2986 1395 c-4 -14 -4 -30 -1 -36 4 -5 -2 -27 -12 -50 -13 -31 -22 -39 -36 -35 -13 3 -32 -9 -60 -38 -23 -24 -52 -47 -64 -50 -16 -5 -24 -18 -29 -44 -4 -20 -12 -44 -19 -52 -6 -8 -17 -29 -24 -47 -7 -18 -18 -31 -23 -30 -6 1 -14 -11 -19 -27 -4 -16 -19 -41 -32 -55 -43 -45 -59 -86 -46 -115 9 -20 9 -29 -1 -41 -7 -8 -10 -21 -7 -29 3 -8 -1 -22 -8 -33 -20 -25 -18 -41 5 -70 11 -14 20 -35 20 -47 0 -24 92 -116 116 -116 8 0 20 -11 26 -25 7 -15 20 -25 32 -25 23 0 120 -84 129 -112 4 -10 12 -15 20 -12 16 6 33 -12 40 -41 2 -11 5 244 6 568 0 323 -1 587 -3 587 -2 0 -7 -11 -10 -25z"/> 
<path d="M1300 510 c0 -7 3 -10 7 -7 3 4 3 10 0 14 -4 3 -7 0 -7 -7z"/> 
<path fill="blue" d="M2990 222 c0 -5 -11 -15 -25 -22 -14 -7 -25 -22 -25 -32 0 -10 -7 -18 -15 -18 -19 0 -19 -24 0 -40 19 -16 1 -42 -23 -33 -14 6 -14 4 1 -17 9 -14 17 -29 17 -35 0 -5 -4 -5 -8 2 -6 9 -11 7 -20 -7 -12 -19 -9 -20 48 -20 l60 0 0 115 c0 63 -2 115 -5 115 -3 0 -5 -4 -5 -8z"/>
</g> </svg> 